<?xml version="1.0" encoding="UTF-8" standalone="no"?>
<!DOCTYPE svg PUBLIC "-//W3C//DTD SVG 1.1//EN" "http://www.w3.org/Graphics/SVG/1.1/DTD/svg11.dtd"><svg width="827" height="720" viewBox="0 0 827 720" fill="none" xmlns="http://www.w3.org/2000/svg">
<path d="M399.5 680.5C572.089 680.5 712 540.589 712 368C712 195.411 572.089 55.5 399.5 55.5C226.911 55.5 87 195.411 87 368C87 540.589 226.911 680.5 399.5 680.5Z" stroke="#2199FA"/>
<path fill-rule="evenodd" clip-rule="evenodd" d="M7.4648 198.5C73.0573 46.9977 223.9 -59 399.5 -59C635.326 -59 826.5 132.174 826.5 368C826.5 603.826 635.326 795 399.5 795C218.16 795 63.2227 681.96 1.30818 522.5H0.235352C62.2008 682.524 217.599 796 399.5 796C635.878 796 827.5 604.378 827.5 368C827.5 131.622 635.878 -60 399.5 -60C223.336 -60 72.0294 46.4312 6.37506 198.5H7.4648Z" fill="#2199FA"/>
</svg>
